<mxfile host="app.diagrams.net" agent="Mozilla/5.0 (Windows NT 10.0; Win64; x64) AppleWebKit/537.36 (KHTML, like Gecko) Chrome/132.0.0.0 Safari/537.36" version="26.0.11">
  <diagram name="Store_Layout_Base" id="E8MO1os7tG6Go1OcQBKb">
    <mxGraphModel dx="794" dy="1512" grid="1" gridSize="10" guides="1" tooltips="1" connect="1" arrows="1" fold="1" page="1" pageScale="1" pageWidth="850" pageHeight="1100" math="0" shadow="0">
      <root>
        <mxCell id="0" />
        <mxCell id="1" parent="0" />
        <mxCell id="KRuYIotHOblg3rBYZyvx-1" value="" style="rounded=0;whiteSpace=wrap;html=1;" vertex="1" parent="1">
          <mxGeometry x="240" width="280" height="280" as="geometry" />
        </mxCell>
        <mxCell id="KRuYIotHOblg3rBYZyvx-2" value="" style="rounded=0;whiteSpace=wrap;html=1;" vertex="1" parent="1">
          <mxGeometry x="240" y="280" width="280" height="80" as="geometry" />
        </mxCell>
        <mxCell id="KRuYIotHOblg3rBYZyvx-3" value="" style="rounded=0;whiteSpace=wrap;html=1;" vertex="1" parent="1">
          <mxGeometry x="240" y="360" width="280" height="80" as="geometry" />
        </mxCell>
        <mxCell id="KRuYIotHOblg3rBYZyvx-4" value="" style="rounded=0;whiteSpace=wrap;html=1;" vertex="1" parent="1">
          <mxGeometry x="200" y="360" width="40" height="80" as="geometry" />
        </mxCell>
        <mxCell id="KRuYIotHOblg3rBYZyvx-5" value="75ft" style="text;html=1;align=center;verticalAlign=middle;whiteSpace=wrap;rounded=0;" vertex="1" parent="1">
          <mxGeometry x="350" y="440" width="60" height="30" as="geometry" />
        </mxCell>
        <mxCell id="KRuYIotHOblg3rBYZyvx-6" value="19ft 10 in" style="text;html=1;align=center;verticalAlign=middle;resizable=0;points=[];autosize=1;strokeColor=none;fillColor=none;" vertex="1" parent="1">
          <mxGeometry x="520" y="325" width="70" height="30" as="geometry" />
        </mxCell>
        <mxCell id="KRuYIotHOblg3rBYZyvx-8" value="" style="rounded=0;whiteSpace=wrap;html=1;" vertex="1" parent="1">
          <mxGeometry x="500" y="280" width="20" height="80" as="geometry" />
        </mxCell>
        <mxCell id="KRuYIotHOblg3rBYZyvx-9" value="35 ft" style="text;html=1;align=center;verticalAlign=middle;whiteSpace=wrap;rounded=0;" vertex="1" parent="1">
          <mxGeometry x="280" y="340" width="60" height="30" as="geometry" />
        </mxCell>
        <mxCell id="KRuYIotHOblg3rBYZyvx-10" value="25ft" style="text;html=1;align=center;verticalAlign=middle;whiteSpace=wrap;rounded=0;" vertex="1" parent="1">
          <mxGeometry x="425" y="340" width="60" height="30" as="geometry" />
        </mxCell>
        <mxCell id="KRuYIotHOblg3rBYZyvx-11" value="" style="shape=link;html=1;rounded=0;" edge="1" parent="1">
          <mxGeometry width="100" relative="1" as="geometry">
            <mxPoint x="360" y="360" as="sourcePoint" />
            <mxPoint x="410" y="360" as="targetPoint" />
          </mxGeometry>
        </mxCell>
        <mxCell id="KRuYIotHOblg3rBYZyvx-17" value="" style="shape=link;html=1;rounded=0;" edge="1" parent="1">
          <mxGeometry width="100" relative="1" as="geometry">
            <mxPoint x="360" y="-1" as="sourcePoint" />
            <mxPoint x="410" y="-1" as="targetPoint" />
          </mxGeometry>
        </mxCell>
        <mxCell id="KRuYIotHOblg3rBYZyvx-18" value="" style="rounded=0;whiteSpace=wrap;html=1;" vertex="1" parent="1">
          <mxGeometry x="320" y="40" width="40" height="40" as="geometry" />
        </mxCell>
        <mxCell id="KRuYIotHOblg3rBYZyvx-19" value="&lt;font style=&quot;font-size: 10px;&quot;&gt;Register&lt;/font&gt;" style="text;html=1;align=center;verticalAlign=middle;whiteSpace=wrap;rounded=0;" vertex="1" parent="1">
          <mxGeometry x="320" y="50" width="40" height="15" as="geometry" />
        </mxCell>
        <mxCell id="KRuYIotHOblg3rBYZyvx-20" value="" style="rounded=0;whiteSpace=wrap;html=1;" vertex="1" parent="1">
          <mxGeometry x="330" y="280" width="110" height="20" as="geometry" />
        </mxCell>
        <mxCell id="KRuYIotHOblg3rBYZyvx-21" value="" style="shape=link;html=1;rounded=0;" edge="1" parent="1">
          <mxGeometry width="100" relative="1" as="geometry">
            <mxPoint x="360" y="280" as="sourcePoint" />
            <mxPoint x="410" y="280" as="targetPoint" />
          </mxGeometry>
        </mxCell>
        <mxCell id="KRuYIotHOblg3rBYZyvx-23" value="Christmas" style="text;html=1;align=center;verticalAlign=middle;whiteSpace=wrap;rounded=0;rotation=270;" vertex="1" parent="1">
          <mxGeometry x="480" y="305" width="60" height="30" as="geometry" />
        </mxCell>
        <mxCell id="KRuYIotHOblg3rBYZyvx-26" value="&lt;h1 style=&quot;margin-top: 0px;&quot;&gt;Extra Details&lt;/h1&gt;&lt;p&gt;Christmas - storage on a low wall niche&lt;/p&gt;&lt;p&gt;&lt;br&gt;&lt;/p&gt;" style="text;html=1;whiteSpace=wrap;overflow=hidden;rounded=0;" vertex="1" parent="1">
          <mxGeometry x="560" y="-2.5" width="160" height="120" as="geometry" />
        </mxCell>
        <mxCell id="KRuYIotHOblg3rBYZyvx-27" value="Intake" style="text;html=1;align=center;verticalAlign=middle;whiteSpace=wrap;rounded=0;rotation=270;" vertex="1" parent="1">
          <mxGeometry x="190" y="385" width="60" height="30" as="geometry" />
        </mxCell>
        <mxCell id="KRuYIotHOblg3rBYZyvx-28" value="&lt;font style=&quot;font-size: 20px;&quot;&gt;Sales&lt;/font&gt;" style="text;html=1;align=center;verticalAlign=middle;whiteSpace=wrap;rounded=0;" vertex="1" parent="1">
          <mxGeometry x="340" y="140" width="90" height="60" as="geometry" />
        </mxCell>
        <mxCell id="KRuYIotHOblg3rBYZyvx-29" value="Additional Sales" style="text;html=1;align=center;verticalAlign=middle;whiteSpace=wrap;rounded=0;" vertex="1" parent="1">
          <mxGeometry x="355" y="305" width="60" height="30" as="geometry" />
        </mxCell>
      </root>
    </mxGraphModel>
  </diagram>
</mxfile>
